<?xml version="1.0" standalone="no"?><!DOCTYPE svg PUBLIC "-//W3C//DTD SVG 1.1//EN" "http://www.w3.org/Graphics/SVG/1.1/DTD/svg11.dtd"><svg t="1482218577073" class="icon" style="" viewBox="0 0 1000 1000" version="1.1" xmlns="http://www.w3.org/2000/svg" p-id="1453" xmlns:xlink="http://www.w3.org/1999/xlink" width="200" height="200"><defs><style type="text/css"></style></defs><path d="M367.988 526.3361c-154.4847 18.0508-136.6301 162.7337-136.6301 162.7337s-1.571 45.8559 41.4277 69.1741c90.3805 48.9378 183.4243 19.2839 230.4584-41.3979C550.306 656.1082 522.6966 508.3973 367.988 526.3361zM329.0417 729.4314c-28.8576 3.3357-52.0939-13.286-52.0939-37.4196 0-24.0187 20.6299-49.1617 49.4985-52.1596 33.1319-3.1659 54.7012 15.9192 54.7012 40.0528C381.1486 703.9227 357.7725 726.1227 329.0417 729.4314zM420.0808 651.849c-9.7538 7.2861-21.7781 6.2767-26.9369-2.4673-5.3816-8.5192-3.3609-22.2269 6.5049-29.431 11.4347-8.5212 23.3761-6.0549 28.4759 2.4943C433.3094 631.1641 429.6378 644.3092 420.0808 651.849zM782.4773 131.3889c-54.5753-12.7544-110.7186-1.7668-126.4446 1.2332-1.2032 0.1119-2.3525 1.2621-3.4758 1.485-0.5317 0.1129-0.8954 0.7015-0.8954 0.7015-15.5001 4.3451-26.8239 18.6953-26.8239 35.6798 0 20.1803 16.3696 36.83 36.8316 36.83 0 0 19.8424-2.6632 33.3538-7.9326 13.3415-5.3534 126.3576-4.0083 182.5299 90.2798 30.6095 68.8093 13.4544 114.8601 11.3238 122.2601 0 0-7.2874 17.8819-7.2874 35.4829 0 20.3202 16.3676 33.1006 36.6627 33.1006 16.9862 0 31.2241-2.3254 35.3735-31.026h0.2518398298682038C1014.14 248.5755 880.1003 154.1755 782.4773 131.3889zM800.8627 427.4522c12.4441 0 23.0114-9.2217 24.7792-21.2176 0.2518-0.9244 0.3618-1.7088 0.3618-2.7192 18.865-169.626-138.9696-140.4218-138.9696-140.4218-14.0441 0-25.2559 11.3243-25.2559 25.5067 0 13.9026 11.2129 25.2249 25.2559 25.2249 113.3799-25.002 88.3198 88.3461 88.3198 88.3461C775.3549 416.2138 786.7926 427.4522 800.8627 427.4522zM725.6585 490.0677c-36.4648-7.0622-18.7531-26.6829-18.7531-26.6829s35.6813-58.8591-7.0615-101.6021c-53.0033-53.0011-181.7444 6.7544-181.7444 6.7544-49.2187 15.2197-36.185-7.0072-29.2064-44.8176 0-44.5918-15.2763-119.9886-146.302-75.4239-130.8828 44.7896-243.2403 201.6933-243.2403 201.6933C21.2205 554.2802 31.5489 634.8606 31.5489 634.8606c19.5226 177.9533 208.5813 226.7802 355.6258 238.3564 154.6936 12.1088 363.5138-53.3408 426.8325-187.7887C877.299 550.6926 762.2382 497.3838 725.6585 490.0677zM398.6385 823.046c-153.6023 7.1751-277.7304-69.8476-277.7304-172.3212 0-102.6374 124.1281-184.8747 277.7304-191.9658 153.6583-7.0602 278.0522 56.2539 278.0522 158.6135C676.6906 719.8459 552.2957 816.0367 398.6385 823.046z" p-id="1454"></path></svg>